<mxfile host="Electron" agent="Mozilla/5.0 (Windows NT 10.0; Win64; x64) AppleWebKit/537.36 (KHTML, like Gecko) draw.io/26.2.2 Chrome/134.0.6998.178 Electron/35.1.2 Safari/537.36" version="26.2.2">
  <diagram name="Страница — 1" id="27xQVkwHkTLGYo4KuTwV">
    <mxGraphModel dx="985" dy="586" grid="1" gridSize="10" guides="1" tooltips="1" connect="1" arrows="1" fold="1" page="1" pageScale="1" pageWidth="827" pageHeight="1169" math="0" shadow="0">
      <root>
        <mxCell id="0" />
        <mxCell id="1" parent="0" />
        <mxCell id="vtSpJPdEMiElvde9kwNP-17" value="Онлайн магазин" style="shape=umlFrame;whiteSpace=wrap;html=1;pointerEvents=0;width=150;height=35;" parent="1" vertex="1">
          <mxGeometry x="30" y="180" width="1020" height="485" as="geometry" />
        </mxCell>
        <mxCell id="vtSpJPdEMiElvde9kwNP-21" value="База данных" style="html=1;dropTarget=0;whiteSpace=wrap;" parent="1" vertex="1">
          <mxGeometry x="760" y="380" width="240" height="50" as="geometry" />
        </mxCell>
        <mxCell id="vtSpJPdEMiElvde9kwNP-22" value="" style="shape=module;jettyWidth=8;jettyHeight=4;" parent="vtSpJPdEMiElvde9kwNP-21" vertex="1">
          <mxGeometry x="1" width="20" height="20" relative="1" as="geometry">
            <mxPoint x="-27" y="7" as="offset" />
          </mxGeometry>
        </mxCell>
        <mxCell id="vtSpJPdEMiElvde9kwNP-23" value="Программа" style="html=1;dropTarget=0;whiteSpace=wrap;" parent="1" vertex="1">
          <mxGeometry x="450" y="380" width="240" height="50" as="geometry" />
        </mxCell>
        <mxCell id="vtSpJPdEMiElvde9kwNP-24" value="" style="shape=module;jettyWidth=8;jettyHeight=4;" parent="vtSpJPdEMiElvde9kwNP-23" vertex="1">
          <mxGeometry x="1" width="20" height="20" relative="1" as="geometry">
            <mxPoint x="-27" y="5" as="offset" />
          </mxGeometry>
        </mxCell>
        <mxCell id="vtSpJPdEMiElvde9kwNP-25" value="Страница пользователя" style="html=1;dropTarget=0;whiteSpace=wrap;" parent="1" vertex="1">
          <mxGeometry x="120" y="365" width="240" height="70" as="geometry" />
        </mxCell>
        <mxCell id="vtSpJPdEMiElvde9kwNP-26" value="" style="shape=module;jettyWidth=8;jettyHeight=4;" parent="vtSpJPdEMiElvde9kwNP-25" vertex="1">
          <mxGeometry x="1" width="20" height="20" relative="1" as="geometry">
            <mxPoint x="-27" y="7" as="offset" />
          </mxGeometry>
        </mxCell>
        <mxCell id="vtSpJPdEMiElvde9kwNP-27" value="Платежный шлюз" style="html=1;dropTarget=0;whiteSpace=wrap;" parent="1" vertex="1">
          <mxGeometry x="450" y="510" width="240" height="50" as="geometry" />
        </mxCell>
        <mxCell id="vtSpJPdEMiElvde9kwNP-28" value="" style="shape=module;jettyWidth=8;jettyHeight=4;" parent="vtSpJPdEMiElvde9kwNP-27" vertex="1">
          <mxGeometry x="1" width="20" height="20" relative="1" as="geometry">
            <mxPoint x="-27" y="7" as="offset" />
          </mxGeometry>
        </mxCell>
        <mxCell id="vtSpJPdEMiElvde9kwNP-35" value="" style="endArrow=block;endFill=1;html=1;edgeStyle=orthogonalEdgeStyle;align=left;verticalAlign=top;rounded=0;entryX=0.5;entryY=1;entryDx=0;entryDy=0;exitX=0.5;exitY=0;exitDx=0;exitDy=0;" parent="1" source="vtSpJPdEMiElvde9kwNP-27" target="vtSpJPdEMiElvde9kwNP-23" edge="1">
          <mxGeometry x="-1" relative="1" as="geometry">
            <mxPoint x="240" y="580" as="sourcePoint" />
            <mxPoint x="400" y="580" as="targetPoint" />
          </mxGeometry>
        </mxCell>
        <mxCell id="vtSpJPdEMiElvde9kwNP-29" value="" style="shape=providedRequiredInterface;html=1;verticalLabelPosition=bottom;sketch=0;rotation=-90;" parent="1" vertex="1">
          <mxGeometry x="560" y="460" width="20" height="20" as="geometry" />
        </mxCell>
        <mxCell id="vtSpJPdEMiElvde9kwNP-40" value="" style="rounded=0;whiteSpace=wrap;html=1;" parent="1" vertex="1">
          <mxGeometry x="555" y="420" width="30" height="20" as="geometry" />
        </mxCell>
        <mxCell id="vtSpJPdEMiElvde9kwNP-41" value="" style="rounded=0;whiteSpace=wrap;html=1;" parent="1" vertex="1">
          <mxGeometry x="555" y="500" width="30" height="20" as="geometry" />
        </mxCell>
        <mxCell id="vtSpJPdEMiElvde9kwNP-42" value="" style="endArrow=block;endFill=1;html=1;edgeStyle=orthogonalEdgeStyle;align=left;verticalAlign=top;rounded=0;entryX=1;entryY=0.75;entryDx=0;entryDy=0;exitX=0;exitY=0.75;exitDx=0;exitDy=0;" parent="1" edge="1">
          <mxGeometry x="-1" relative="1" as="geometry">
            <mxPoint x="450" y="413.5" as="sourcePoint" />
            <mxPoint x="359.9999999999999" y="413.5" as="targetPoint" />
          </mxGeometry>
        </mxCell>
        <mxCell id="vtSpJPdEMiElvde9kwNP-43" value="" style="shape=providedRequiredInterface;html=1;verticalLabelPosition=bottom;sketch=0;rotation=-180;" parent="1" vertex="1">
          <mxGeometry x="394" y="404" width="20" height="20" as="geometry" />
        </mxCell>
        <mxCell id="vtSpJPdEMiElvde9kwNP-44" value="" style="rounded=0;whiteSpace=wrap;html=1;rotation=90;" parent="1" vertex="1">
          <mxGeometry x="345" y="404" width="30" height="20" as="geometry" />
        </mxCell>
        <mxCell id="vtSpJPdEMiElvde9kwNP-45" value="" style="rounded=0;whiteSpace=wrap;html=1;rotation=90;" parent="1" vertex="1">
          <mxGeometry x="442.5" y="403.5" width="25" height="20" as="geometry" />
        </mxCell>
        <mxCell id="vtSpJPdEMiElvde9kwNP-49" value="IContext" style="text;html=1;align=center;verticalAlign=middle;whiteSpace=wrap;rounded=0;fontSize=8;" parent="1" vertex="1">
          <mxGeometry x="379" y="420" width="50" height="25" as="geometry" />
        </mxCell>
        <mxCell id="vtSpJPdEMiElvde9kwNP-52" value="" style="endArrow=block;endFill=1;html=1;edgeStyle=orthogonalEdgeStyle;align=left;verticalAlign=top;rounded=0;entryX=1;entryY=0.75;entryDx=0;entryDy=0;" parent="1" edge="1">
          <mxGeometry x="-1" relative="1" as="geometry">
            <mxPoint x="760" y="417" as="sourcePoint" />
            <mxPoint x="683.9999999999999" y="417.15" as="targetPoint" />
          </mxGeometry>
        </mxCell>
        <mxCell id="vtSpJPdEMiElvde9kwNP-53" value="" style="shape=providedRequiredInterface;html=1;verticalLabelPosition=bottom;sketch=0;rotation=-180;" parent="1" vertex="1">
          <mxGeometry x="716" y="407.25" width="20" height="20" as="geometry" />
        </mxCell>
        <mxCell id="vtSpJPdEMiElvde9kwNP-54" value="" style="rounded=0;whiteSpace=wrap;html=1;rotation=90;" parent="1" vertex="1">
          <mxGeometry x="677" y="407.25" width="20" height="20" as="geometry" />
        </mxCell>
        <mxCell id="vtSpJPdEMiElvde9kwNP-55" value="" style="rounded=0;whiteSpace=wrap;html=1;rotation=90;" parent="1" vertex="1">
          <mxGeometry x="750" y="407.25" width="20" height="20" as="geometry" />
        </mxCell>
        <mxCell id="vtSpJPdEMiElvde9kwNP-56" value="IServer" style="text;html=1;align=center;verticalAlign=middle;whiteSpace=wrap;rounded=0;fontSize=8;" parent="1" vertex="1">
          <mxGeometry x="703" y="422.5" width="50" height="25" as="geometry" />
        </mxCell>
      </root>
    </mxGraphModel>
  </diagram>
</mxfile>
